<svg width="721" height="691" viewBox="0 0 721 691" fill="none" xmlns="http://www.w3.org/2000/svg">
<line y1="114.652" x2="720" y2="114.652" stroke="white"/>
<line y1="229.804" x2="720" y2="229.804" stroke="white"/>
<line y1="344.956" x2="720" y2="344.956" stroke="white"/>
<line x1="0.5" y1="2.18557e-08" x2="0.499985" y2="345.456" stroke="white"/>
<line x1="144.5" y1="2.18557e-08" x2="144.5" y2="345.456" stroke="white"/>
<line x1="288.5" y1="2.18557e-08" x2="288.5" y2="345.456" stroke="white"/>
<line x1="432.5" y1="2.18557e-08" x2="432.5" y2="345.456" stroke="white"/>
<line x1="576.5" y1="2.18557e-08" x2="576.5" y2="345.456" stroke="white"/>
<line x1="720.5" y1="2.18557e-08" x2="720.5" y2="345.456" stroke="white"/>
<line y1="460.108" x2="720" y2="460.108" stroke="white"/>
<line y1="575.26" x2="720" y2="575.26" stroke="white"/>
<line y1="690.412" x2="720" y2="690.412" stroke="white"/>
<line x1="0.5" y1="345.456" x2="0.499985" y2="690.912" stroke="white"/>
<line x1="144.5" y1="345.456" x2="144.5" y2="690.912" stroke="white"/>
<line x1="288.5" y1="345.456" x2="288.5" y2="690.912" stroke="white"/>
<line x1="432.5" y1="345.456" x2="432.5" y2="690.912" stroke="white"/>
<line x1="576.5" y1="345.456" x2="576.5" y2="690.912" stroke="white"/>
<line x1="720.5" y1="345.456" x2="720.5" y2="690.912" stroke="white"/>
</svg>
