<svg width="32" height="62" viewBox="0 0 32 62" fill="none" xmlns="http://www.w3.org/2000/svg">
<path fill-rule="evenodd" clip-rule="evenodd" d="M31.71 53.6686C31.6684 57.0727 29.9928 59.4789 26.685 60.8873C23.5782 61.4479 21.6999 60.2853 21.0536 57.3996C20.74 54.8245 21.7502 52.8508 24.0859 51.4786C24.8258 51.2752 25.5761 51.113 26.3385 50.992C25.8637 50.8617 25.4011 50.6995 24.9523 50.5053C24.7218 50.2349 24.7218 49.9646 24.9523 49.6942C27.068 49.8589 28.9445 50.5888 30.5837 51.8842C31.0533 52.4411 31.4293 53.0359 31.71 53.6686Z" fill="#182962"/>
<path fill-rule="evenodd" clip-rule="evenodd" d="M30.4969 53.8308C30.4588 56.5804 29.1315 58.5539 26.5117 59.7518C24.4272 60.3036 23.0115 59.6277 22.2664 57.724C21.7709 55.8723 22.2612 54.2772 23.7393 52.9386C24.3457 52.4876 24.9816 52.2443 25.6453 52.2086C25.0146 53.2037 24.3509 54.177 23.6526 55.1286C23.4499 55.8045 23.7098 56.0478 24.4324 55.8585C25.3715 54.2519 26.5272 52.8191 27.8978 51.5598C27.955 51.6138 28.0139 51.668 28.0711 51.722C26.8149 53.8036 25.5153 55.8582 24.1725 57.8863C23.9992 58.6433 24.2885 58.8596 25.0388 58.5351C26.3956 56.4263 27.754 54.3175 29.1108 52.2086C29.7415 52.6361 30.2024 53.1767 30.4969 53.8308Z" fill="#F7F7F7"/>
<path fill-rule="evenodd" clip-rule="evenodd" d="M17.8472 50.5866C17.6168 50.5866 17.3846 50.5866 17.1541 50.5866C17.1541 50.3704 17.1541 50.154 17.1541 49.9378C17.3066 49.5132 17.2772 49.0806 17.0675 48.64C14.3558 41.184 11.6423 33.8302 8.92365 26.5784C6.36959 20.1203 3.48285 13.7938 0.259963 7.59886C0.192385 7.16282 0.105749 6.73018 5.15402e-05 6.30112C0.0953526 5.95592 0.327539 5.71259 0.693147 5.57113C3.97495 3.68324 7.38325 2.00704 10.9163 0.542377C12.7825 -0.180791 14.6313 -0.180791 16.4611 0.542377C17.3222 1.42549 17.9876 2.42589 18.4537 3.54341C21.7858 17.4249 25.279 31.2674 28.9368 45.0712C28.8536 45.773 28.5365 45.8812 27.9838 45.3957C27.8677 45.1794 27.7533 44.963 27.6372 44.7468C24.3935 46.7297 21.1308 48.6764 17.8472 50.5866Z" fill="#182962"/>
<path fill-rule="evenodd" clip-rule="evenodd" d="M27.3774 43.2868C27.4155 43.4774 27.3583 43.6397 27.2041 43.7735C24.2428 45.4974 21.3267 47.2818 18.4538 49.1267C20.2974 45.6228 22.3767 42.2162 24.6916 38.9069C25.052 38.4662 25.1664 37.9795 25.0382 37.447C24.8562 37.282 24.6535 37.2549 24.4317 37.3659C22.1566 40.6782 19.9907 44.0577 17.934 47.5045C17.6567 46.862 17.3968 46.2131 17.1542 45.5579C17.6671 45.3747 18.0431 45.0503 18.2805 44.5846C20.4308 41.0432 22.6262 37.5284 24.8649 34.0404C25.6724 37.1535 26.511 40.2357 27.3774 43.2868Z" fill="#F7F7F7"/>
<path fill-rule="evenodd" clip-rule="evenodd" d="M24.4315 31.9318C24.4593 32.2606 24.4315 32.585 24.3449 32.9051C21.7302 36.7722 19.2472 40.7196 16.8941 44.747C16.5753 43.9585 16.2582 43.1743 15.9411 42.3949C16.1005 42.3342 16.2444 42.2531 16.3743 42.1515C18.5004 38.9177 20.6958 35.7274 22.9587 32.5807C23.4387 31.5155 23.1493 31.2451 22.0924 31.7696C19.9559 34.9057 17.8177 38.0421 15.6812 41.1782C15.3416 40.5564 15.0522 39.9076 14.8149 39.2316C14.6988 39.0154 14.6988 38.799 14.8149 38.5827C17.1246 35.2302 19.4361 31.8778 21.7458 28.5252C22.0976 28.0287 22.3003 27.4878 22.3523 26.903C21.8065 26.8153 21.3733 26.9775 21.0527 27.3897C18.7568 30.769 16.5043 34.1756 14.295 37.6094C13.8688 36.7122 13.5794 35.7929 13.4287 34.8517C16.3882 30.8793 19.2177 26.8239 21.9191 22.6854C22.7699 25.7826 23.6085 28.8647 24.4315 31.9318Z" fill="#F8F8F8"/>
<path fill-rule="evenodd" clip-rule="evenodd" d="M21.4853 20.2522C21.5356 20.763 21.4489 21.2496 21.2254 21.7121C18.4963 25.7951 15.724 29.8506 12.9083 33.8785C12.5652 33.0791 12.333 32.268 12.2152 31.4452C14.8143 27.7682 17.4134 24.0914 20.0125 20.4144C20.3382 20.0228 20.4543 19.5901 20.359 19.1166C20.0697 18.9004 19.782 18.9004 19.4927 19.1166C16.8936 22.9017 14.2944 26.6869 11.6953 30.4719C11.1703 29.4833 10.8238 28.456 10.6557 27.3897C13.0244 24.1994 15.3913 21.0092 17.7599 17.8189C17.7079 16.8722 17.3025 16.764 16.547 17.4944C14.4105 20.4684 12.2723 23.4425 10.1359 26.4164C8.73063 22.919 7.22835 19.4583 5.63076 16.0345C5.5216 15.6881 5.57878 15.3637 5.80404 15.0612C8.92643 10.4036 12.132 5.80745 15.4207 1.27265C16.476 2.00457 17.0235 2.97788 17.0668 4.19257C13.7746 8.62648 10.4824 13.0605 7.19023 17.4944C6.85234 18.7784 7.19889 18.9406 8.22987 17.9811C11.3055 13.7891 14.4244 9.62558 17.5867 5.49031C18.8515 10.438 20.1511 15.3585 21.4853 20.2522Z" fill="#F9F9F9"/>
<path fill-rule="evenodd" clip-rule="evenodd" d="M18.1942 10.843C18.222 11.1186 18.1925 11.3891 18.1076 11.6541C15.4877 14.9718 13.0047 18.3784 10.6568 21.8739C9.62585 22.8334 9.2793 22.6712 9.61719 21.3872C12.0863 17.8058 14.656 14.291 17.3279 10.843C17.6224 10.6297 17.9118 10.6297 18.1942 10.843Z" fill="#182962"/>
<path fill-rule="evenodd" clip-rule="evenodd" d="M17.8474 50.5867C17.6014 50.741 17.312 50.795 16.981 50.749C16.9325 50.4383 16.9897 50.1681 17.1543 49.9379C17.1543 50.1541 17.1543 50.3705 17.1543 50.5867C17.3848 50.5867 17.617 50.5867 17.8474 50.5867Z" fill="#A0A0A0"/>
<path fill-rule="evenodd" clip-rule="evenodd" d="M14.0358 0.948061C11.0468 5.45204 8.0145 9.94013 4.93889 14.4122C4.55423 13.7631 4.2354 13.0873 3.98589 12.3844C6.37533 8.85895 8.74225 5.31724 11.0901 1.75915C12.0327 1.36285 13.0134 1.09243 14.0358 0.948061Z" fill="#F8F8F8"/>
<path fill-rule="evenodd" clip-rule="evenodd" d="M9.35669 2.40814C7.40909 5.35094 5.41644 8.27087 3.37874 11.1679C3.17601 10.7895 2.97502 10.4108 2.77229 10.0324C4.33348 7.86451 5.80631 5.64764 7.19077 3.38145C7.88213 2.99018 8.60468 2.66575 9.35669 2.40814Z" fill="#F2F2F2"/>
<path fill-rule="evenodd" clip-rule="evenodd" d="M5.37231 4.35455C4.34826 5.89173 3.2809 7.40588 2.16675 8.89666C1.79941 8.12742 1.36622 7.39744 0.867196 6.70672C2.35042 5.87762 3.8527 5.09362 5.37231 4.35455Z" fill="#F2F2F2"/>
</svg>
