<svg width="57" height="66" viewBox="0 0 57 66" fill="none" xmlns="http://www.w3.org/2000/svg">
<path d="M30.128 20.9658C26.8596 24.3842 17.7333 33.5015 16.8251 37.681C15.9957 41.4918 22.7348 45.6511 24.6792 46.0427C25.66 46.2528 26.8281 47.0208 27.6613 46.4254C29.6942 44.9756 34.1966 40.7495 36.8761 37.3415C40.4697 32.7697 44.5189 28.1512 48.4781 23.8597C50.182 22.0121 52.6352 20.1449 53.9359 18.0524C54.3428 17.3985 55.5829 13.9967 54.7497 12.643C54.1143 11.6113 43.3597 -0.603651 38.2585 1.13757C35.0029 2.24575 32.0866 5.04158 29.557 7.31498C25.0658 11.3539 21.6498 14.259 17.8711 18.8754C12.0581 25.971 8.6721 31.4382 3.31393 39.1057C1.80261 41.2685 0.564035 49.1732 1.20393 51.5621C1.58981 53.016 4.36593 59.9238 8.38287 61.9503C10.4157 62.9778 13.9673 64.7078 16.3276 64.6265C20.1842 64.4922 22.235 65.0459 25.4202 62.2292C28.8767 59.1795 38.4234 49.0765 41.4977 45.7443C42.1533 45.0347 44.6605 42.5123 45.1123 41.6497C46.9196 38.1874 43.2391 36.2305 41.2107 38.714C39.372 40.9728 27.0357 54.0831 25.648 55.5509C17.991 63.6609 -0.555405 50.9721 11.2369 36.3398C18.0135 27.9502 21.2467 20.7223 29.7788 13.9397C32.1826 12.0315 35.6023 7.57307 38.7381 6.82385C39.2918 6.69376 47.0312 12.4406 48.4249 13.29C50.2502 14.4016 47.9416 16.4719 45.7799 19.3721C44.7406 20.7634 42.7708 23.0528 41.5981 24.3265C39.2034 26.9206 38.2458 29.194 35.4854 31.4883C33.0929 33.4764 32.1466 35.1314 28.7193 38.9596C28.3349 39.3784 27.8157 40.3495 27.2133 40.4128C26.7427 40.4615 23.7156 38.3154 23.5395 37.7951C23.0127 36.2618 34.5765 24.0489 34.9205 23.6253C36.9218 21.13 32.6007 18.3821 30.1287 20.9665L30.128 20.9658Z" stroke="#C6C4C3" stroke-width="2" stroke-linecap="round" stroke-linejoin="round"/>
</svg>
