<svg width="20" height="19" viewBox="0 0 20 19" fill="none" xmlns="http://www.w3.org/2000/svg">
<path d="M19.3765 7.16476C18.9397 6.65272 18.3437 6.36995 17.6988 6.36995H16.2251C16.0863 2.83151 13.3473 0 10 0C6.65271 0 3.91366 2.83151 3.77487 6.36995H2.30124C1.65628 6.36995 1.0603 6.65272 0.623518 7.16476C0.0724405 7.80672 -0.12758 8.70088 0.0806046 9.56066L1.84813 16.8515C2.11347 17.952 3.02785 18.7239 4.06877 18.7239H15.9271C16.9681 18.7239 17.8825 17.9558 18.1478 16.8515L19.9194 9.56066C20.1276 8.70088 19.9276 7.80672 19.3765 7.16476ZM10 1.55905C12.4329 1.55905 14.4249 3.69128 14.5556 6.36995H5.44443C5.57505 3.69511 7.56709 1.55905 10 1.55905ZM18.2947 9.21292L16.5272 16.5076C16.4374 16.8821 16.1802 17.1649 15.9312 17.1649H4.06877C3.81977 17.1649 3.5626 16.8821 3.47279 16.5076L1.70526 9.21292C1.61138 8.82698 1.55423 7.929 2.30124 7.929H17.6988C18.5029 7.929 18.3886 8.82698 18.2947 9.21292Z" fill="currentColor"/>
<path d="M5.86497 9.48041C5.40369 9.48041 5.03223 9.82814 5.03223 10.2599V15.132C5.03223 15.5638 5.40369 15.9115 5.86497 15.9115C6.32624 15.9115 6.69771 15.5638 6.69771 15.132V10.2599C6.70179 9.83196 6.32624 9.48041 5.86497 9.48041Z" fill="currentColor"/>
<path d="M9.90208 9.48041C9.4408 9.48041 9.06934 9.82814 9.06934 10.2599V15.132C9.06934 15.5638 9.4408 15.9115 9.90208 15.9115C10.3633 15.9115 10.7348 15.5638 10.7348 15.132V10.2599C10.7348 9.83196 10.3593 9.48041 9.90208 9.48041Z" fill="currentColor"/>
<path d="M13.935 9.48041C13.4738 9.48041 13.1023 9.82814 13.1023 10.2599V15.132C13.1023 15.5638 13.4738 15.9115 13.935 15.9115C14.3963 15.9115 14.7678 15.5638 14.7678 15.132V10.2599C14.7678 9.83196 14.3963 9.48041 13.935 9.48041Z" fill="currentColor"/>
</svg>
