<svg width="20" height="19" viewBox="0 0 20 19" fill="none" xmlns="http://www.w3.org/2000/svg">
<path d="M19.4369 15.6301L16.2409 12.6173C18.3351 9.42779 17.9131 5.18855 14.9789 2.42255C11.5523 -0.807517 5.99643 -0.807517 2.5699 2.42255C-0.856634 5.65262 -0.856634 10.89 2.5699 14.12C5.55493 16.9339 10.1536 17.2949 13.5528 15.2102L16.7214 18.1935C17.4716 18.9007 18.6906 18.9007 19.4408 18.1935C20.1871 17.4864 20.1871 16.3373 19.4369 15.6301ZM4.73053 12.0796C2.50348 9.98025 2.50348 6.56234 4.73053 4.46298C6.95758 2.36362 10.5834 2.36362 12.8104 4.46298C15.0375 6.56234 15.0375 9.98025 12.8104 12.0796C10.5834 14.179 6.95758 14.179 4.73053 12.0796Z" fill="currentColor"/>
</svg>
