<svg width="16" height="18" viewBox="0 0 16 18" fill="none" xmlns="http://www.w3.org/2000/svg">
<path d="M12.375 11.25C14.2383 11.25 15.75 12.7617 15.75 14.625C15.75 16.5234 14.2383 18 12.375 18C10.4766 18 9 16.5234 9 14.625V14.6602C9 14.3789 9 14.1328 9.07031 13.9219L5.44922 11.6719C4.88672 12.1289 4.14844 12.375 3.375 12.375C1.47656 12.375 0 10.8984 0 9C0 7.13672 1.47656 5.625 3.375 5.625C4.14844 5.625 4.88672 5.90625 5.44922 6.36328L9.07031 4.11328C9 3.90234 9 3.65625 9 3.375C9 1.51172 10.4766 0 12.375 0C14.2383 0 15.75 1.51172 15.75 3.375C15.75 5.27344 14.2383 6.75 12.375 6.75C11.5664 6.75 10.8281 6.50391 10.2656 6.04688L6.64453 8.29688C6.71484 8.50781 6.71484 8.75391 6.71484 9C6.71484 9.28125 6.71484 9.52734 6.64453 9.73828L10.2656 11.9883C10.8281 11.5312 11.5664 11.25 12.375 11.25Z" fill="#ECFB5C"/>
</svg>
