<svg width="1589" height="789" viewBox="0 0 1589 789" fill="none" xmlns="http://www.w3.org/2000/svg">
<rect opacity="0.8" x="0.5" y="0.5" width="1588" height="787.276" stroke="#534E4E"/>
<rect opacity="0.8" x="0.234049" y="124.748" width="1588.53" height="0.468098" stroke="#534E4E" stroke-width="0.468098"/>
<rect opacity="0.8" x="0.234049" y="255.815" width="1588.53" height="0.468098" stroke="#534E4E" stroke-width="0.468098"/>
<rect opacity="0.8" x="0.234049" y="387.819" width="1588.53" height="0.468098" stroke="#534E4E" stroke-width="0.468098"/>
<rect opacity="0.8" x="0.234049" y="519.822" width="1588.53" height="0.468098" stroke="#534E4E" stroke-width="0.468098"/>
<rect opacity="0.8" x="0.234049" y="651.826" width="1588.53" height="0.468098" stroke="#534E4E" stroke-width="0.468098"/>
<rect opacity="0.8" x="140.25" y="0.25" width="0.5" height="787.776" stroke="#534E4E" stroke-width="0.5"/>
<rect opacity="0.8" x="284.25" y="0.25" width="0.5" height="787.776" stroke="#534E4E" stroke-width="0.5"/>
<rect opacity="0.8" x="428.25" y="0.25" width="0.5" height="787.776" stroke="#534E4E" stroke-width="0.5"/>
<rect opacity="0.8" x="572.25" y="0.25" width="0.5" height="787.776" stroke="#534E4E" stroke-width="0.5"/>
<rect opacity="0.8" x="716.25" y="0.25" width="0.5" height="787.776" stroke="#534E4E" stroke-width="0.5"/>
<rect opacity="0.8" x="860.25" y="0.25" width="0.5" height="787.776" stroke="#534E4E" stroke-width="0.5"/>
<rect opacity="0.8" x="1004.25" y="0.25" width="0.5" height="787.776" stroke="#534E4E" stroke-width="0.5"/>
<rect opacity="0.8" x="1148.25" y="0.25" width="0.5" height="787.776" stroke="#534E4E" stroke-width="0.5"/>
<rect opacity="0.8" x="1292.25" y="0.25" width="0.5" height="787.776" stroke="#534E4E" stroke-width="0.5"/>
<rect opacity="0.8" x="1436.25" y="0.25" width="0.5" height="787.776" stroke="#534E4E" stroke-width="0.5"/>
</svg>
